<svg width="20" height="20" viewBox="0 0 20 20" fill="none" xmlns="http://www.w3.org/2000/svg">
<path opacity="0.4" fill-rule="evenodd" clip-rule="evenodd" d="M5.33049 0.000488281H14.6695C18.0705 0.000488281 19.9905 1.92949 20.0005 5.33049V14.6705C20.0005 18.0705 18.0705 20.0005 14.6695 20.0005H5.33049C1.92949 20.0005 0.000488281 18.0705 0.000488281 14.6705V5.33049C0.000488281 1.92949 1.92949 0.000488281 5.33049 0.000488281ZM10.0495 15.8605C10.4805 15.8605 10.8395 15.5405 10.8795 15.1105V4.92049C10.9195 4.61049 10.7705 4.29949 10.5005 4.13049C10.2195 3.96049 9.87949 3.96049 9.61049 4.13049C9.33949 4.29949 9.19049 4.61049 9.21949 4.92049V15.1105C9.27049 15.5405 9.62949 15.8605 10.0495 15.8605ZM14.6505 15.8605C15.0705 15.8605 15.4295 15.5405 15.4805 15.1105V11.8305C15.5095 11.5095 15.3605 11.2105 15.0895 11.0405C14.8205 10.8705 14.4805 10.8705 14.2005 11.0405C13.9295 11.2105 13.7805 11.5095 13.8205 11.8305V15.1105C13.8605 15.5405 14.2195 15.8605 14.6505 15.8605ZM6.21949 15.1105C6.17949 15.5405 5.82049 15.8605 5.38949 15.8605C4.95949 15.8605 4.59949 15.5405 4.56049 15.1105V8.20049C4.53049 7.88949 4.67949 7.58049 4.95049 7.41049C5.21949 7.24049 5.56049 7.24049 5.83049 7.41049C6.09949 7.58049 6.25049 7.88949 6.21949 8.20049V15.1105Z" fill="#FAFAFA"/>
</svg>
