<svg width="8" height="8" viewBox="0 0 8 8" fill="none" xmlns="http://www.w3.org/2000/svg">
<path fill-rule="evenodd" clip-rule="evenodd" d="M2.83395 7.56796L6.73901 2.51797C6.95125 2.24565 7.02671 1.9308 6.95596 1.61022C6.89465 1.31878 6.71543 1.04168 6.44661 0.83146L5.79105 0.310695C5.22038 -0.143182 4.51294 -0.0954059 4.10734 0.425359L3.66873 0.994378C3.61214 1.06556 3.62629 1.17067 3.69703 1.22801C3.69703 1.22801 4.80535 2.11665 4.82893 2.13576C4.90439 2.20742 4.96099 2.30298 4.97513 2.41764C4.99872 2.64219 4.84308 2.85241 4.61198 2.88107C4.50351 2.89541 4.39975 2.86196 4.32429 2.79985L3.15938 1.87299C3.10278 1.83047 3.01789 1.83955 2.97073 1.89688L0.202284 5.48012C0.023066 5.70467 -0.0382454 5.99611 0.023066 6.27799L0.376785 7.81162C0.39565 7.89284 0.466394 7.95017 0.551287 7.95017L2.10765 7.93106C2.39063 7.92628 2.65474 7.79728 2.83395 7.56796ZM5.01328 7.09027H7.5511C7.7987 7.09027 8.00008 7.29428 8.00008 7.5451C8.00008 7.79641 7.7987 7.99994 7.5511 7.99994H5.01328C4.76567 7.99994 4.56429 7.79641 4.56429 7.5451C4.56429 7.29428 4.76567 7.09027 5.01328 7.09027Z" fill="#605BFF"/>
</svg>
