<svg width="18" height="18" viewBox="0 0 18 18" fill="none" xmlns="http://www.w3.org/2000/svg">
<path d="M17.855 7.33397C17.935 7.33397 17.9999 7.39884 17.9999 7.47885V8.99995C17.9999 9.56926 17.947 10.1259 17.8456 10.6659C17.061 14.8604 13.3658 18.0302 8.93648 17.9996C3.9665 17.9654 -0.0109811 13.9497 2.27767e-05 8.97966C0.0109563 4.01855 4.03625 0 8.99994 0C11.4318 0 13.6382 0.964752 15.2582 2.53187C15.3167 2.58843 15.3182 2.68167 15.2607 2.73918L13.1087 4.89112C13.0533 4.94653 12.9638 4.94797 12.907 4.89393C11.8903 3.92612 10.5146 3.33195 8.99994 3.33195C5.87207 3.33195 3.35331 5.83281 3.33208 8.96061C3.31074 12.1089 5.8566 14.6679 8.99994 14.6679C11.5503 14.6679 13.7074 12.9831 14.4187 10.6659H9.14481C9.0648 10.6659 8.99994 10.6011 8.99994 10.521V7.47882C8.99994 7.3988 9.0648 7.33394 9.14481 7.33394H17.855V7.33397Z" fill="#2196F3"/>
<path d="M17.8552 7.33447H16.7687C16.8487 7.33447 16.9136 7.39934 16.9136 7.47935V9.00045C16.9136 9.56976 16.8607 10.1264 16.7593 10.6664C16.0108 14.668 12.6131 17.7369 8.4563 17.9842C8.61534 17.9935 8.77545 17.999 8.93667 18.0002C13.366 18.0307 17.0612 14.8608 17.8458 10.6664C17.9472 10.1264 18.0001 9.56976 18.0001 9.00045V7.47932C18.0001 7.39934 17.9352 7.33447 17.8552 7.33447Z" fill="#1E88E5"/>
<path d="M3.85196 6.62628L1.11865 4.65136C2.65209 1.87786 5.60703 0 9.00022 0C11.4321 0 13.6385 0.964752 15.2585 2.53187C15.317 2.58843 15.3185 2.68167 15.2609 2.73918L13.109 4.89112C13.0537 4.94642 12.9642 4.94814 12.9076 4.89421C11.8908 3.92623 10.5151 3.33198 9.00022 3.33198C6.71746 3.33198 4.74978 4.68141 3.85196 6.62628Z" fill="#F44336"/>
<path d="M3.06274 6.0562L3.85182 6.62633C4.67131 4.85116 6.38228 3.57267 8.41044 3.36297C8.42569 3.36132 8.44035 3.35931 8.45589 3.35784C8.27741 3.34089 8.09653 3.33203 7.91358 3.33203C5.85143 3.33203 4.05425 4.41916 3.06274 6.0562Z" fill="#E53935"/>
<path d="M14.1719 2.53187C14.2304 2.58843 14.2319 2.68167 14.1744 2.73922L12.4277 4.48588C12.595 4.61314 12.7552 4.74927 12.9072 4.89397C12.964 4.948 13.0535 4.94656 13.1089 4.89116L15.2609 2.73922C15.3184 2.68167 15.3169 2.58847 15.2584 2.53187C13.6384 0.964752 11.432 0 9.00012 0C8.81763 0 8.63658 0.006082 8.45679 0.0168046C10.673 0.148816 12.6734 1.08231 14.1719 2.53187Z" fill="#E53935"/>
<path d="M15.6022 15.1163C13.9586 16.8898 11.6089 17.9999 9.00017 17.9999C5.47662 17.9999 2.42606 15.975 0.94873 13.0251L3.73924 11.1128C4.57662 13.1964 6.61673 14.6679 9.00017 14.6679C10.4959 14.6679 11.8562 14.0884 12.8689 13.1417L15.6022 15.1163Z" fill="#4CAF50"/>
<path d="M3.73937 11.1128L2.9165 11.6767C3.87222 13.4571 5.75163 14.6678 7.91376 14.6678C8.09661 14.6678 8.27734 14.6589 8.45576 14.642C6.30952 14.4374 4.51217 13.0358 3.73937 11.1128Z" fill="#43A047"/>
<path d="M9.00015 18.0001C11.6089 18.0001 13.9586 16.89 15.6022 15.1165L14.9327 14.6328C13.3895 16.5534 11.0745 17.8275 8.45825 17.9837C8.63755 17.9944 8.81818 18.0001 9.00015 18.0001Z" fill="#43A047"/>
<path d="M3.33223 9.00045C3.33223 9.74723 3.47672 10.4604 3.7393 11.1134L0.948754 13.0256C0.341785 11.8145 0.000244141 10.4473 0.000244141 9.00045C0.000244141 7.42321 0.405875 5.94082 1.11863 4.65186L3.85194 6.62678C3.51838 7.34857 3.33223 8.15298 3.33223 9.00045Z" fill="#FFC107"/>
<path d="M2.91634 11.6772L3.7392 11.1133C3.47662 10.4604 3.33213 9.74722 3.33213 9.00043C3.33213 8.15296 3.51828 7.34855 3.85184 6.62677L3.06277 6.05664C2.55037 6.90267 2.25298 7.89544 2.24574 8.96113C2.23906 9.94388 2.48259 10.8692 2.91634 11.6772Z" fill="#FFB300"/>
</svg>
